<svg width="649" height="477" viewBox="0 0 649 477" fill="none" xmlns="http://www.w3.org/2000/svg">
<path fill-rule="evenodd" clip-rule="evenodd" d="M115.375 0C51.6552 0 0 51.6551 0 115.375V510.031C0 573.751 51.6551 625.406 115.375 625.406H884.625C948.345 625.406 1000 573.751 1000 510.031V115.375C1000 51.6552 948.345 0 884.625 0H115.375ZM132.021 152.689C116.428 137.714 91.6477 138.216 76.6733 153.81C61.699 169.404 62.201 194.184 77.7946 209.158L350.949 471.464C372.867 492.513 407.621 492.076 429.004 470.484L505.151 393.593L582.334 470.563C604.072 492.241 639.261 492.211 660.961 470.496L922.277 209.01C937.56 193.718 937.552 168.933 922.259 153.651C906.967 138.369 882.182 138.377 866.9 153.669L621.587 399.141L544.33 322.099C522.523 300.352 487.196 300.462 465.525 322.345L389.079 399.538L132.021 152.689Z" fill="white"/>
</svg>
