<svg width="653" height="478" viewBox="0 0 653 478" fill="none" xmlns="http://www.w3.org/2000/svg">
<path fill-rule="evenodd" clip-rule="evenodd" d="M-231.625 -148C-295.345 -148 -347 -96.3449 -347 -32.6251V362.031C-347 425.751 -295.345 477.406 -231.625 477.406H537.625C601.345 477.406 653 425.751 653 362.031V-32.625C653 -96.3448 601.345 -148 537.625 -148H-231.625ZM-214.979 4.68872C-230.572 -10.2856 -255.352 -9.7836 -270.327 5.81001C-285.301 21.4036 -284.799 46.1838 -269.205 61.1582L3.94879 323.464C25.8672 344.513 60.6205 344.076 82.0035 322.484L158.151 245.593L235.334 322.563C257.072 344.241 292.261 344.211 313.961 322.496L575.277 61.0102C590.56 45.7182 590.552 20.9329 575.259 5.65073C559.967 -9.63142 535.182 -9.62338 519.9 5.66869L274.587 251.141L197.33 174.099C175.523 152.352 140.196 152.462 118.525 174.345L42.079 251.538L-214.979 4.68872Z" fill="#EF8354"/>
</svg>
