<svg width="30" height="30" viewBox="0 0 30 30" fill="none" xmlns="http://www.w3.org/2000/svg">
<path fill-rule="evenodd" clip-rule="evenodd" d="M25.3125 16.875H27.1875C27.4361 16.875 27.6746 16.9738 27.8504 17.1496C28.0262 17.3254 28.125 17.5639 28.125 17.8125C28.125 18.0611 28.0262 18.2996 27.8504 18.4754C27.6746 18.6512 27.4361 18.75 27.1875 18.75H25.3125V23.4375C25.3125 23.9348 25.115 24.4117 24.7633 24.7633C24.4117 25.115 23.9348 25.3125 23.4375 25.3125H18.75V27.1875C18.75 27.4361 18.6512 27.6746 18.4754 27.8504C18.2996 28.0262 18.0611 28.125 17.8125 28.125C17.5639 28.125 17.3254 28.0262 17.1496 27.8504C16.9738 27.6746 16.875 27.4361 16.875 27.1875V25.3125H13.125V27.1875C13.125 27.4361 13.0262 27.6746 12.8504 27.8504C12.6746 28.0262 12.4361 28.125 12.1875 28.125C11.9389 28.125 11.7004 28.0262 11.5246 27.8504C11.3488 27.6746 11.25 27.4361 11.25 27.1875V25.3125H6.5625C6.06522 25.3125 5.58831 25.115 5.23667 24.7633C4.88504 24.4117 4.6875 23.9348 4.6875 23.4375V18.75H2.8125C2.56386 18.75 2.3254 18.6512 2.14959 18.4754C1.97377 18.2996 1.875 18.0611 1.875 17.8125C1.875 17.5639 1.97377 17.3254 2.14959 17.1496C2.3254 16.9738 2.56386 16.875 2.8125 16.875H4.6875V13.125H2.8125C2.56386 13.125 2.3254 13.0262 2.14959 12.8504C1.97377 12.6746 1.875 12.4361 1.875 12.1875C1.875 11.9389 1.97377 11.7004 2.14959 11.5246C2.3254 11.3488 2.56386 11.25 2.8125 11.25H4.6875V6.5625C4.6875 6.06522 4.88504 5.58831 5.23667 5.23667C5.58831 4.88504 6.06522 4.6875 6.5625 4.6875H11.25V2.8125C11.25 2.56386 11.3488 2.3254 11.5246 2.14959C11.7004 1.97377 11.9389 1.875 12.1875 1.875C12.4361 1.875 12.6746 1.97377 12.8504 2.14959C13.0262 2.3254 13.125 2.56386 13.125 2.8125V4.6875H16.875V2.8125C16.875 2.56386 16.9738 2.3254 17.1496 2.14959C17.3254 1.97377 17.5639 1.875 17.8125 1.875C18.0611 1.875 18.2996 1.97377 18.4754 2.14959C18.6512 2.3254 18.75 2.56386 18.75 2.8125V4.6875H23.4375C23.9348 4.6875 24.4117 4.88504 24.7633 5.23667C25.115 5.58831 25.3125 6.06522 25.3125 6.5625V11.25H27.1875C27.4361 11.25 27.6746 11.3488 27.8504 11.5246C28.0262 11.7004 28.125 11.9389 28.125 12.1875C28.125 12.4361 28.0262 12.6746 27.8504 12.8504C27.6746 13.0262 27.4361 13.125 27.1875 13.125H25.3125V16.875ZM15.2274 14.7305V12.1875C15.2274 12.0632 15.178 11.944 15.0901 11.856C15.0022 11.7681 14.883 11.7188 14.7587 11.7188C14.6343 11.7188 14.5151 11.7681 14.4272 11.856C14.3393 11.944 14.2899 12.0632 14.2899 12.1875V15.0469C14.2899 15.0493 14.2909 15.0517 14.2921 15.0546C14.2938 15.0586 14.2958 15.0635 14.2958 15.0703V15.0938C14.3016 15.0996 14.3016 15.1055 14.3016 15.1172C14.3038 15.1196 14.3054 15.1224 14.3064 15.1254C14.3074 15.1284 14.3078 15.1316 14.3075 15.1348L14.3192 15.1582C14.3189 15.1614 14.3193 15.1646 14.3203 15.1676C14.3213 15.1706 14.3229 15.1734 14.3251 15.1758C14.3251 15.1826 14.3271 15.1875 14.3287 15.1915C14.3299 15.1944 14.3309 15.1968 14.3309 15.1992L14.3426 15.2168C14.3426 15.2213 14.3437 15.2258 14.3457 15.2299C14.3478 15.234 14.3507 15.2375 14.3544 15.2402L14.3661 15.2578L14.3778 15.2754L14.3895 15.2988L14.4012 15.3105C14.403 15.3123 14.4048 15.3146 14.4067 15.3172C14.4112 15.323 14.4165 15.3299 14.4247 15.334L14.4364 15.3457L14.454 15.3633L14.4716 15.375L14.4891 15.3926L14.5126 15.4043H14.5243L16.9618 16.8105C17.0318 16.8549 17.1134 16.8773 17.1962 16.875C17.2988 16.8744 17.3984 16.8401 17.4797 16.7774C17.561 16.7146 17.6194 16.627 17.6461 16.5278C17.6727 16.4286 17.666 16.3235 17.6271 16.2285C17.5881 16.1335 17.5191 16.0539 17.4305 16.002L15.2274 14.7305ZM20.3003 10.5399C20.391 10.5212 20.4853 10.5297 20.5712 10.5645C20.6567 10.6007 20.7299 10.6609 20.7819 10.7379C20.8338 10.8148 20.8624 10.9052 20.8641 10.998V13.3418C20.8641 13.4661 20.8147 13.5853 20.7268 13.6733C20.6389 13.7612 20.5197 13.8105 20.3954 13.8105H18.0516C17.9594 13.8104 17.8692 13.783 17.7925 13.7319C17.7157 13.6807 17.6557 13.6081 17.6201 13.523C17.5844 13.4379 17.5747 13.3442 17.592 13.2536C17.6094 13.163 17.6531 13.0796 17.7176 13.0137L18.5614 12.1699L18.0751 11.6836C17.4193 11.0286 16.5841 10.5826 15.6749 10.4022C14.7658 10.2217 13.8235 10.3149 12.9673 10.6698C12.1111 11.0248 11.3793 11.6256 10.8645 12.3963C10.3496 13.1671 10.0748 14.0731 10.0748 15C10.0748 15.9269 10.3496 16.833 10.8645 17.6037C11.3793 18.3744 12.1111 18.9753 12.9673 19.3302C13.8235 19.6851 14.7658 19.7783 15.6749 19.5978C16.5841 19.4174 17.4193 18.9714 18.0751 18.3164C18.1182 18.2723 18.1697 18.2372 18.2265 18.2133C18.2834 18.1894 18.3444 18.177 18.4061 18.177C18.4678 18.177 18.5289 18.1894 18.5857 18.2133C18.6426 18.2372 18.6941 18.2723 18.7372 18.3164C18.8248 18.4043 18.8741 18.5233 18.8741 18.6475C18.8741 18.7716 18.8248 18.8906 18.7372 18.9785C17.9504 19.7649 16.9481 20.3003 15.857 20.5171C14.766 20.7339 13.6351 20.6224 12.6075 20.1965C11.5798 19.7707 10.7015 19.0497 10.0835 18.1248C9.46557 17.1998 9.13574 16.1124 9.13574 15C9.13574 13.8876 9.46557 12.8002 10.0835 11.8752C10.7015 10.9503 11.5798 10.2293 12.6075 9.80346C13.6351 9.37763 14.766 9.26607 15.857 9.48287C16.9481 9.69967 17.9504 10.2351 18.7372 11.0215L19.2235 11.5078L20.0614 10.6699C20.1264 10.6039 20.2096 10.5587 20.3003 10.5399Z" fill="#757575"/>
</svg>
