<svg width="50" height="50" viewBox="0 0 50 50" fill="none" xmlns="http://www.w3.org/2000/svg">
<path d="M42.1875 6.25H14.0625C13.6481 6.25 13.2507 6.41462 12.9576 6.70765C12.6646 7.00067 12.5 7.3981 12.5 7.8125C12.5 8.2269 12.6646 8.62433 12.9576 8.91735C13.2507 9.21038 13.6481 9.375 14.0625 9.375H40.625V35.9375C40.625 36.3519 40.7896 36.7493 41.0826 37.0424C41.3757 37.3354 41.7731 37.5 42.1875 37.5C42.6019 37.5 42.9993 37.3354 43.2924 37.0424C43.5854 36.7493 43.75 36.3519 43.75 35.9375V7.8125C43.75 7.3981 43.5854 7.00067 43.2924 6.70765C42.9993 6.41462 42.6019 6.25 42.1875 6.25Z" fill="white"/>
<path fill-rule="evenodd" clip-rule="evenodd" d="M7.8125 12.5H35.9375C36.8004 12.5 37.5 13.1996 37.5 14.0625V42.1875C37.5 43.0504 36.8004 43.75 35.9375 43.75H7.8125C6.94955 43.75 6.25 43.0504 6.25 42.1875V14.0625C6.25 13.1996 6.94955 12.5 7.8125 12.5ZM18.3922 21.0021L28.6174 27.1645C28.785 27.2644 28.9236 27.4052 29.0199 27.5735C29.1161 27.7418 29.1667 27.9318 29.1667 28.125C29.1667 28.3182 29.1161 28.5082 29.0199 28.6765C28.9236 28.8448 28.785 28.9856 28.6174 29.0855L18.3922 35.2479C18.2219 35.3544 18.0252 35.4128 17.8235 35.4165C17.6219 35.4202 17.4232 35.3691 17.2489 35.2689C17.0721 35.1731 16.9247 35.0321 16.8223 34.8606C16.7198 34.6891 16.6661 34.4935 16.6667 34.2944V21.9556C16.6661 21.7565 16.7198 21.5609 16.8223 21.3894C16.9247 21.2179 17.0721 21.0769 17.2489 20.9811C17.4232 20.8809 17.6219 20.8298 17.8235 20.8335C18.0252 20.8372 18.2219 20.8955 18.3922 21.0021Z" fill="white"/>
</svg>
