<svg width="30" height="30" viewBox="0 0 30 30" fill="none" xmlns="http://www.w3.org/2000/svg">
<path d="M18.75 25.3125H11.25C11.0014 25.3125 10.7629 25.4113 10.5871 25.5871C10.4113 25.7629 10.3125 26.0014 10.3125 26.25C10.3125 26.4986 10.4113 26.7371 10.5871 26.9129C10.7629 27.0887 11.0014 27.1875 11.25 27.1875H18.75C18.9986 27.1875 19.2371 27.0887 19.4129 26.9129C19.5887 26.7371 19.6875 26.4986 19.6875 26.25C19.6875 26.0014 19.5887 25.7629 19.4129 25.5871C19.2371 25.4113 18.9986 25.3125 18.75 25.3125Z" fill="#757575"/>
<path fill-rule="evenodd" clip-rule="evenodd" d="M5.625 4.6875H24.375C25.9283 4.6875 27.1875 5.9467 27.1875 7.5V20.625C27.1875 22.1783 25.9283 23.4375 24.375 23.4375H5.625C4.0717 23.4375 2.8125 22.1783 2.8125 20.625V7.5C2.8125 5.9467 4.0717 4.6875 5.625 4.6875ZM15.2274 13.793V11.25C15.2274 11.1257 15.178 11.0065 15.0901 10.9185C15.0022 10.8306 14.883 10.7813 14.7587 10.7813C14.6343 10.7813 14.5151 10.8306 14.4272 10.9185C14.3393 11.0065 14.2899 11.1257 14.2899 11.25V14.1094C14.2899 14.1118 14.2909 14.1142 14.2921 14.1171C14.2938 14.1211 14.2958 14.126 14.2958 14.1328V14.1563C14.3016 14.1621 14.3016 14.168 14.3016 14.1797C14.3038 14.1821 14.3054 14.1849 14.3064 14.1879C14.3074 14.1909 14.3078 14.1941 14.3075 14.1973L14.3192 14.2207C14.3189 14.2239 14.3193 14.2271 14.3203 14.2301C14.3213 14.2331 14.3229 14.2359 14.3251 14.2383C14.3251 14.2451 14.3271 14.25 14.3287 14.254C14.3299 14.2569 14.3309 14.2593 14.3309 14.2617L14.3426 14.2793C14.3426 14.2838 14.3437 14.2883 14.3457 14.2924C14.3478 14.2965 14.3507 14.3 14.3544 14.3027L14.3661 14.3203L14.3778 14.3379L14.3895 14.3613L14.4012 14.373C14.403 14.3748 14.4048 14.3771 14.4067 14.3797C14.4112 14.3855 14.4165 14.3924 14.4247 14.3965L14.4364 14.4082L14.454 14.4258L14.4716 14.4375L14.4891 14.4551L14.5126 14.4668H14.5243L16.9618 15.873C17.0318 15.9174 17.1134 15.9398 17.1962 15.9375C17.2988 15.9369 17.3984 15.9026 17.4797 15.8399C17.561 15.7771 17.6194 15.6895 17.6461 15.5903C17.6727 15.4911 17.666 15.386 17.6271 15.291C17.5881 15.196 17.5191 15.1164 17.4305 15.0645L15.2274 13.793ZM20.3003 9.60242C20.391 9.58365 20.4853 9.59219 20.5712 9.62696C20.6567 9.66318 20.7299 9.72342 20.7819 9.80037C20.8338 9.87732 20.8624 9.96769 20.8641 10.0605V12.4043C20.8641 12.5286 20.8147 12.6478 20.7268 12.7358C20.6389 12.8237 20.5197 12.873 20.3954 12.873H18.0516C17.9594 12.8729 17.8692 12.8455 17.7925 12.7944C17.7157 12.7432 17.6557 12.6706 17.6201 12.5855C17.5844 12.5004 17.5747 12.4067 17.592 12.3161C17.6094 12.2255 17.6531 12.1421 17.7176 12.0762L18.5614 11.2324L18.0751 10.7461C17.4193 10.0911 16.5841 9.64514 15.6749 9.46469C14.7658 9.28424 13.8235 9.37738 12.9673 9.73232C12.1111 10.0873 11.3793 10.6881 10.8645 11.4588C10.3496 12.2296 10.0748 13.1356 10.0748 14.0625C10.0748 14.9894 10.3496 15.8955 10.8645 16.6662C11.3793 17.4369 12.1111 18.0377 12.9673 18.3927C13.8235 18.7476 14.7658 18.8408 15.6749 18.6603C16.5841 18.4799 17.4193 18.0339 18.0751 17.3789C18.1182 17.3348 18.1697 17.2997 18.2265 17.2758C18.2834 17.2519 18.3444 17.2395 18.4061 17.2395C18.4678 17.2395 18.5289 17.2519 18.5857 17.2758C18.6426 17.2997 18.6941 17.3348 18.7372 17.3789C18.8248 17.4668 18.8741 17.5858 18.8741 17.71C18.8741 17.8341 18.8248 17.9531 18.7372 18.041C17.9504 18.8274 16.9481 19.3628 15.857 19.5796C14.766 19.7964 13.6351 19.6849 12.6075 19.259C11.5798 18.8332 10.7015 18.1122 10.0835 17.1873C9.46557 16.2623 9.13574 15.1749 9.13574 14.0625C9.13574 12.9501 9.46557 11.8627 10.0835 10.9377C10.7015 10.0128 11.5798 9.29179 12.6075 8.86596C13.6351 8.44013 14.766 8.32857 15.857 8.54537C16.9481 8.76217 17.9504 9.29761 18.7372 10.084L19.2235 10.5703L20.0614 9.73242C20.1264 9.66643 20.2096 9.62119 20.3003 9.60242Z" fill="#757575"/>
</svg>
